<svg xmlns="http://www.w3.org/2000/svg" viewBox="0 0 1440 520"><path fill="#6e851b" fill-opacity="1" d="M0,192L21.8,186.7C43.6,181,87,171,131,144C174.5,117,218,75,262,64C305.5,53,349,75,393,106.7C436.4,139,480,181,524,197.3C567.3,213,611,203,655,213.3C698.2,224,742,256,785,250.7C829.1,245,873,203,916,202.7C960,203,1004,245,1047,261.3C1090.9,277,1135,267,1178,272C1221.8,277,1265,299,1309,298.7C1352.7,299,1396,277,1418,266.7L1440,256L1440,0L1418.2,0C1396.4,0,1353,0,1309,0C1265.5,0,1222,0,1178,0C1134.5,0,1091,0,1047,0C1003.6,0,960,0,916,0C872.7,0,829,0,785,0C741.8,0,698,0,655,0C610.9,0,567,0,524,0C480,0,436,0,393,0C349.1,0,305,0,262,0C218.2,0,175,0,131,0C87.3,0,44,0,22,0L0,0Z"></path></svg>